<?xml version="1.0" standalone="no"?>
<svg xmlns:xlink="http://www.w3.org/1999/xlink" id="wave" style="transform:rotate(0deg); transition: 0.3s" viewBox="0 0 1440 180" version="1.1" xmlns="http://www.w3.org/2000/svg"><defs><linearGradient id="sw-gradient-0" x1="0" x2="0" y1="1" y2="0"><stop stop-color="rgba(243, 106, 62, 1)" offset="0%"/><stop stop-color="rgba(219, 112, 73, 0.29)" offset="100%"/></linearGradient></defs><path style="transform:translate(0, 0px); opacity:1" fill="url(#sw-gradient-0)" d="M0,90L48,78C96,66,192,42,288,36C384,30,480,42,576,66C672,90,768,126,864,117C960,108,1056,54,1152,42C1248,30,1344,60,1440,63C1536,66,1632,42,1728,45C1824,48,1920,78,2016,87C2112,96,2208,84,2304,81C2400,78,2496,84,2592,90C2688,96,2784,102,2880,105C2976,108,3072,108,3168,96C3264,84,3360,60,3456,54C3552,48,3648,60,3744,81C3840,102,3936,132,4032,126C4128,120,4224,78,4320,78C4416,78,4512,120,4608,120C4704,120,4800,78,4896,72C4992,66,5088,96,5184,102C5280,108,5376,90,5472,72C5568,54,5664,36,5760,51C5856,66,5952,114,6048,114C6144,114,6240,66,6336,48C6432,30,6528,42,6624,45C6720,48,6816,42,6864,39L6912,36L6912,180L6864,180C6816,180,6720,180,6624,180C6528,180,6432,180,6336,180C6240,180,6144,180,6048,180C5952,180,5856,180,5760,180C5664,180,5568,180,5472,180C5376,180,5280,180,5184,180C5088,180,4992,180,4896,180C4800,180,4704,180,4608,180C4512,180,4416,180,4320,180C4224,180,4128,180,4032,180C3936,180,3840,180,3744,180C3648,180,3552,180,3456,180C3360,180,3264,180,3168,180C3072,180,2976,180,2880,180C2784,180,2688,180,2592,180C2496,180,2400,180,2304,180C2208,180,2112,180,2016,180C1920,180,1824,180,1728,180C1632,180,1536,180,1440,180C1344,180,1248,180,1152,180C1056,180,960,180,864,180C768,180,672,180,576,180C480,180,384,180,288,180C192,180,96,180,48,180L0,180Z"/><defs><linearGradient id="sw-gradient-1" x1="0" x2="0" y1="1" y2="0"><stop stop-color="rgba(243, 106, 62, 1)" offset="0%"/><stop stop-color="rgba(219, 112, 73, 0.56)" offset="100%"/></linearGradient></defs><path style="transform:translate(0, 50px); opacity:0.9" fill="url(#sw-gradient-1)" d="M0,126L48,111C96,96,192,66,288,45C384,24,480,12,576,21C672,30,768,60,864,69C960,78,1056,66,1152,54C1248,42,1344,30,1440,42C1536,54,1632,90,1728,114C1824,138,1920,150,2016,141C2112,132,2208,102,2304,102C2400,102,2496,132,2592,123C2688,114,2784,66,2880,63C2976,60,3072,102,3168,114C3264,126,3360,108,3456,111C3552,114,3648,138,3744,123C3840,108,3936,54,4032,30C4128,6,4224,12,4320,27C4416,42,4512,66,4608,63C4704,60,4800,30,4896,30C4992,30,5088,60,5184,63C5280,66,5376,42,5472,39C5568,36,5664,54,5760,54C5856,54,5952,36,6048,36C6144,36,6240,54,6336,54C6432,54,6528,36,6624,51C6720,66,6816,114,6864,138L6912,162L6912,180L6864,180C6816,180,6720,180,6624,180C6528,180,6432,180,6336,180C6240,180,6144,180,6048,180C5952,180,5856,180,5760,180C5664,180,5568,180,5472,180C5376,180,5280,180,5184,180C5088,180,4992,180,4896,180C4800,180,4704,180,4608,180C4512,180,4416,180,4320,180C4224,180,4128,180,4032,180C3936,180,3840,180,3744,180C3648,180,3552,180,3456,180C3360,180,3264,180,3168,180C3072,180,2976,180,2880,180C2784,180,2688,180,2592,180C2496,180,2400,180,2304,180C2208,180,2112,180,2016,180C1920,180,1824,180,1728,180C1632,180,1536,180,1440,180C1344,180,1248,180,1152,180C1056,180,960,180,864,180C768,180,672,180,576,180C480,180,384,180,288,180C192,180,96,180,48,180L0,180Z"/><defs><linearGradient id="sw-gradient-2" x1="0" x2="0" y1="1" y2="0"><stop stop-color="rgba(243, 106, 62, 1)" offset="0%"/><stop stop-color="rgba(219, 112, 73, 0.24)" offset="100%"/></linearGradient></defs><path style="transform:translate(0, 100px); opacity:0.8" fill="url(#sw-gradient-2)" d="M0,162L48,159C96,156,192,150,288,150C384,150,480,156,576,156C672,156,768,150,864,147C960,144,1056,144,1152,126C1248,108,1344,72,1440,57C1536,42,1632,48,1728,54C1824,60,1920,66,2016,63C2112,60,2208,48,2304,60C2400,72,2496,108,2592,126C2688,144,2784,144,2880,141C2976,138,3072,132,3168,114C3264,96,3360,66,3456,66C3552,66,3648,96,3744,111C3840,126,3936,126,4032,126C4128,126,4224,126,4320,114C4416,102,4512,78,4608,72C4704,66,4800,78,4896,96C4992,114,5088,138,5184,126C5280,114,5376,66,5472,45C5568,24,5664,30,5760,51C5856,72,5952,108,6048,105C6144,102,6240,60,6336,51C6432,42,6528,66,6624,75C6720,84,6816,78,6864,75L6912,72L6912,180L6864,180C6816,180,6720,180,6624,180C6528,180,6432,180,6336,180C6240,180,6144,180,6048,180C5952,180,5856,180,5760,180C5664,180,5568,180,5472,180C5376,180,5280,180,5184,180C5088,180,4992,180,4896,180C4800,180,4704,180,4608,180C4512,180,4416,180,4320,180C4224,180,4128,180,4032,180C3936,180,3840,180,3744,180C3648,180,3552,180,3456,180C3360,180,3264,180,3168,180C3072,180,2976,180,2880,180C2784,180,2688,180,2592,180C2496,180,2400,180,2304,180C2208,180,2112,180,2016,180C1920,180,1824,180,1728,180C1632,180,1536,180,1440,180C1344,180,1248,180,1152,180C1056,180,960,180,864,180C768,180,672,180,576,180C480,180,384,180,288,180C192,180,96,180,48,180L0,180Z"/></svg>